<svg id="Слой_1" data-name="Слой 1" xmlns="http://www.w3.org/2000/svg" xmlns:xlink="http://www.w3.org/1999/xlink" viewBox="0 0 183 100"><defs><style>.cls-1,.cls-4{fill:none;}.cls-1,.cls-2,.cls-4,.cls-5{stroke:#000;stroke-miterlimit:10;}.cls-1,.cls-5{stroke-width:0.5px;}.cls-2{stroke-width:0.17px;fill:url(#Безымянный_градиент_7);}.cls-3{fill:#fff;}.cls-4{stroke-width:0.5px;}.cls-5{fill:url(#Безымянный_градиент_7-2);}.cls-6{fill:url(#Безымянный_градиент_7-3);}</style><linearGradient id="Безымянный_градиент_7" x1="97.69" y1="81.55" x2="107.7" y2="81.55" gradientUnits="userSpaceOnUse"><stop offset="0" stop-color="#b6a699"/><stop offset="1" stop-color="#a99981"/></linearGradient><linearGradient id="Безымянный_градиент_7-2" x1="3.05" y1="30.8" x2="22.37" y2="30.8" xlink:href="#Безымянный_градиент_7"/><linearGradient id="Безымянный_градиент_7-3" x1="23.88" y1="49.64" x2="97.04" y2="49.64" xlink:href="#Безымянный_градиент_7"/></defs><title>Монтажная область 1</title><path class="cls-1" d="M77,96.2c-2.62.91-23.58,7.81-43.5-5.12C15.92,79.65,12,61.11,11.29,56.74"/><polygon points="13.61 58.01 13.31 58.41 11.34 56.93 10 59 9.58 58.73 11.21 56.21 13.61 58.01"/><path class="cls-1" d="M32.17,9C34.54,7.51,53.58-3.63,75.78,4.82c19.62,7.47,27.33,24.77,29,28.89"/><polygon points="102.22 32.95 102.42 32.5 104.66 33.53 105.53 31.23 106 31.41 104.94 34.22 102.22 32.95"/><path d="M101.84,58.18a8.76,8.76,0,0,1-2.37-1,3.22,3.22,0,0,1-.82-.73,1.35,1.35,0,0,1-.24-.82,1,1,0,0,1,.24-.69.8.8,0,0,1,.63-.27,2.37,2.37,0,0,1,1.12.48,11.15,11.15,0,0,0,1.92.92,7.25,7.25,0,0,0,2.37.34,5,5,0,0,0,2.7-.62,2,2,0,0,0,1-1.77,1.73,1.73,0,0,0-.36-1.14,2.82,2.82,0,0,0-1.22-.77,17.29,17.29,0,0,0-2.54-.7,9.46,9.46,0,0,1-4.06-1.64A3.44,3.44,0,0,1,99,47a4,4,0,0,1,.77-2.45,5.26,5.26,0,0,1,2.14-1.67,7.51,7.51,0,0,1,3.11-.61,8.64,8.64,0,0,1,2.43.34,7,7,0,0,1,2.07,1,2.09,2.09,0,0,1,1.1,1.61,1,1,0,0,1-.26.7.76.76,0,0,1-.61.29,2.43,2.43,0,0,1-1.16-.54,10.6,10.6,0,0,0-1.7-.91,5.55,5.55,0,0,0-2-.32,4,4,0,0,0-2.43.68,2.13,2.13,0,0,0-.92,1.8,1.81,1.81,0,0,0,.34,1.15,2.91,2.91,0,0,0,1.12.77,14.42,14.42,0,0,0,2.28.66,15.73,15.73,0,0,1,3.39,1.06A3.51,3.51,0,0,1,110.87,54a3.86,3.86,0,0,1-1.71,3.27,7.45,7.45,0,0,1-4.5,1.24A11.23,11.23,0,0,1,101.84,58.18Z"/><path d="M137.05,42.37a1.3,1.3,0,0,1,.87.32,1,1,0,0,1,.38.8,1.5,1.5,0,0,1-.09.49L132.86,57.5a1.58,1.58,0,0,1-.56.66,1.48,1.48,0,0,1-.82.24,1.41,1.41,0,0,1-.79-.24,1.45,1.45,0,0,1-.56-.66l-4.45-11.3-4.41,11.3a1.32,1.32,0,0,1-.55.66,1.52,1.52,0,0,1-1.64,0,1.49,1.49,0,0,1-.58-.66L113.16,44a1.19,1.19,0,0,1-.1-.45,1.06,1.06,0,0,1,.43-.87,1.47,1.47,0,0,1,1-.36,1.13,1.13,0,0,1,1.1.78L120,55l4.54-11.79a1.54,1.54,0,0,1,.53-.64,1.31,1.31,0,0,1,.73-.23,1.33,1.33,0,0,1,.75.23,1.29,1.29,0,0,1,.5.64L131.54,55,136,43.14A1.1,1.1,0,0,1,137.05,42.37Z"/><path d="M141.72,38.47a1.53,1.53,0,0,1-.49-1.19,1.5,1.5,0,0,1,.49-1.16,2,2,0,0,1,2.51,0,1.52,1.52,0,0,1,.48,1.16,1.56,1.56,0,0,1-.48,1.19,2,2,0,0,1-2.51,0Zm.3,19.66a1.25,1.25,0,0,1-.37-1V43.59a1.25,1.25,0,0,1,.37-1,1.35,1.35,0,0,1,.95-.34,1.29,1.29,0,0,1,.94.34,1.28,1.28,0,0,1,.35,1V57.18a1.24,1.24,0,0,1-.35,1,1.33,1.33,0,0,1-.94.33A1.4,1.4,0,0,1,142,58.13Z"/><path d="M160.65,43.27a6.86,6.86,0,0,1,2.45,2.88,10,10,0,0,1,.87,4.3,9.76,9.76,0,0,1-.87,4.26A6.43,6.43,0,0,1,157,58.53a6.25,6.25,0,0,1-3.2-.8,5.2,5.2,0,0,1-2.08-2.29V63a1.21,1.21,0,0,1-.34.91,1.26,1.26,0,0,1-.95.34,1.32,1.32,0,0,1-1-.35,1.22,1.22,0,0,1-.36-.9V43.59a1.23,1.23,0,0,1,.36-.93,1.28,1.28,0,0,1,1-.36,1.23,1.23,0,0,1,.95.36,1.25,1.25,0,0,1,.34.93v1.74A5.2,5.2,0,0,1,153.81,43a6.25,6.25,0,0,1,3.2-.8A6.47,6.47,0,0,1,160.65,43.27ZM160,54.83a6.76,6.76,0,0,0,1.26-4.38A7,7,0,0,0,160,46,4.78,4.78,0,0,0,153,46a6.87,6.87,0,0,0-1.24,4.41A7,7,0,0,0,153,54.81a4.25,4.25,0,0,0,3.53,1.56A4.31,4.31,0,0,0,160,54.83Z"/><path d="M180.61,55a1,1,0,0,1,.26.74c0,.53-.37,1-1.12,1.48a10.14,10.14,0,0,1-5,1.35A7.65,7.65,0,0,1,169,56.37a8.12,8.12,0,0,1-2.11-5.95,9.38,9.38,0,0,1,.93-4.27,7,7,0,0,1,2.63-2.88,7.19,7.19,0,0,1,3.84-1,6.24,6.24,0,0,1,4.87,2,7.8,7.8,0,0,1,1.8,5.41,1.43,1.43,0,0,1-.26.94,1.07,1.07,0,0,1-.83.29H169.54q.28,5.54,5.25,5.54a6.26,6.26,0,0,0,2.15-.34,14.48,14.48,0,0,0,1.94-.92,3,3,0,0,1,1.12-.48A.76.76,0,0,1,180.61,55Zm-9.54-9.41a5.89,5.89,0,0,0-1.47,3.64h9.11a5.56,5.56,0,0,0-1.19-3.65,4,4,0,0,0-3.15-1.27A4.38,4.38,0,0,0,171.07,45.55Z"/><path d="M61.8,59.17H59c.15-2.05.22-4.38.22-7a43.23,43.23,0,0,0-.54-7.46l3.07-.41q-.18,3.21-.18,7.87Q61.59,55.84,61.8,59.17ZM62.45,40a2,2,0,0,1-.51,1.36,1.78,1.78,0,0,1-1.43.58,1.55,1.55,0,0,1-1.22-.5,1.78,1.78,0,0,1-.44-1.21,1.9,1.9,0,0,1,.53-1.33,1.85,1.85,0,0,1,1.44-.57,1.51,1.51,0,0,1,1.19.5A1.72,1.72,0,0,1,62.45,40Z"/><circle class="cls-1" cx="102.84" cy="81.92" r="12.66"/><path class="cls-2" d="M102.41,74.64l1,.21L103,76.93l1.08.21.46-2,1.1.21-.43,2.1a3.68,3.68,0,0,1,.83.22,2.47,2.47,0,0,1,1,.59,2.56,2.56,0,0,1,.49.73,2.48,2.48,0,0,1,.16.73,2.44,2.44,0,0,1-.08.86,1.83,1.83,0,0,1-.35.7,1.7,1.7,0,0,1-.83.49,2.11,2.11,0,0,1-.28,0,1.49,1.49,0,0,1,.35.16,2,2,0,0,1,.46.35,2.29,2.29,0,0,1,.4.51,2.24,2.24,0,0,1,.25.89,2.54,2.54,0,0,1-.17,1.26,2.3,2.3,0,0,1-.67,1,2.83,2.83,0,0,1-1.18.51,5.13,5.13,0,0,1-2.29,0l-.38,2.08-1.08-.22.43-2-1.1-.21-.49,2-1-.22.4-2-2.4-.54L98.13,84l1.23.29,1.46-6.71-1.64-.32.24-1,2.53.54Z"/><path class="cls-3" d="M104.1,80.75a1.18,1.18,0,0,1-.37-.07l-1.06-.24.42-2,.86.19a3.05,3.05,0,0,1,.47.13,1.24,1.24,0,0,1,.58.45,1,1,0,0,1,.15.75,1,1,0,0,1-.27.47,1.25,1.25,0,0,1-.7.35Z"/><path d="M103.16,78.51l.77.18h0a1.68,1.68,0,0,1,.4.11,1.13,1.13,0,0,1,.55.42.9.9,0,0,1,.14.68.93.93,0,0,1-.26.43,1.07,1.07,0,0,1-.64.32h-.07a1.41,1.41,0,0,1-.35-.06l-.06,0-.91-.21.38-1.86M103,78.3l-.46,2.21c.46.09.83.18,1.08.24a1.48,1.48,0,0,0,.45.09h.09a1.32,1.32,0,0,0,.75-.37,1.1,1.1,0,0,0,.3-.52,1.05,1.05,0,0,0-.17-.8,1.2,1.2,0,0,0-.62-.49,2.26,2.26,0,0,0-.48-.13L103,78.3Z"/><path class="cls-3" d="M103.76,84.76a3.51,3.51,0,0,1-.88-.11c-.28-.06-.65-.15-1.07-.27l.5-2.15c.49.09.89.18,1.18.25,0,0,.31.08.75.24a1.08,1.08,0,0,1,.35.18,1,1,0,0,1,.32.46,1.13,1.13,0,0,1,0,.58,1,1,0,0,1-.25.55.91.91,0,0,1-.44.22,1.41,1.41,0,0,1-.43.05Z"/><path d="M102.38,82.33c.37.07.74.15,1.09.24a6,6,0,0,1,.73.23,1.34,1.34,0,0,1,.34.16.87.87,0,0,1,.28,1,.9.9,0,0,1-.22.51.87.87,0,0,1-.41.2,1.69,1.69,0,0,1-.43,0h0a4.38,4.38,0,0,1-.86-.1c-.32-.07-.66-.15-1-.25l.47-2m-.13-.2-.54,2.31c.46.14.85.23,1.16.3a4.93,4.93,0,0,0,.88.11h0a1.6,1.6,0,0,0,.46-.06,1,1,0,0,0,.48-.24A1,1,0,0,0,105,84a1.08,1.08,0,0,0,0-.62,1,1,0,0,0-.35-.51,1.1,1.1,0,0,0-.37-.19,5.76,5.76,0,0,0-.76-.24c-.31-.08-.74-.18-1.26-.27Z"/><circle class="cls-1" cx="102.84" cy="81.92" r="10.1"/><path class="cls-4" d="M30.31,17.81H28.12a2.06,2.06,0,0,0-2,1.59L25.06,24,22.28,36.08a2.06,2.06,0,0,1-2,1.59H6.44a2,2,0,0,1-1.87-1.22L.88,28.16a3,3,0,0,1,2.75-4.24H25"/><path class="cls-5" d="M21.31,26.22H5.06A2,2,0,0,0,3.21,29L5.6,34.72a1.05,1.05,0,0,0,1,.66h13a1,1,0,0,0,1-.81l1.76-7A1.06,1.06,0,0,0,21.31,26.22Z"/><circle class="cls-4" cx="19.24" cy="40.34" r="1.91"/><circle class="cls-4" cx="7.02" cy="40.34" r="1.91"/><path class="cls-6" d="M89.86,29.25a4.37,4.37,0,0,0-2.29.43l-4,2.42,0,0h-.1a.31.31,0,0,1-.23-.11,29.17,29.17,0,0,0-5.41-5.41.31.31,0,0,1-.08-.39L80.35,22A2.42,2.42,0,0,0,81,20.38c-.06-.75-.65-1.74-5.29-3.73a37.09,37.09,0,0,0-6.44-2.29c-2.7-.66-10.4-2.56-11.88-.14-.44.73-.47,2.63-.52,6.42a.39.39,0,0,1,0,.12.29.29,0,0,1-.24.17,29.09,29.09,0,0,0-7.38,2,.27.27,0,0,1-.12,0,.63.63,0,0,1-.26-.15c-.11-.12-1.21-1.84-2.69-4.2a2.18,2.18,0,0,0-1-1.15c-.77-.37-2-.18-5.41,2.4a51.71,51.71,0,0,0-5.18,4.47S30,28.35,28.11,32a2.37,2.37,0,0,0-.28,1.43,2.29,2.29,0,0,0,.71,1.29L33.59,38a.32.32,0,0,1,.13.38,28.46,28.46,0,0,0-2,7.39.31.31,0,0,1-.3.26l-5.61.29a2.08,2.08,0,0,0-1.72,1.57,28.84,28.84,0,0,0,0,7.16,31.32,31.32,0,0,0,1.73,7,32.19,32.19,0,0,0,1.71,3.77,10.56,10.56,0,0,0,2,3,2.68,2.68,0,0,0,1.57,1,2.32,2.32,0,0,0,1.57-.43L37,66.89a.26.26,0,0,1,.15,0,.32.32,0,0,1,.24.11,28.52,28.52,0,0,0,5.4,5.41c.1.08.08.24.08.39s-.15.48-.47.92a13.5,13.5,0,0,1-1.29,1.72h0a13.56,13.56,0,0,0-1,1.43,4.67,4.67,0,0,0-.93,2.07c-.05,1.76,3.64,3.23,6.3,4.3a44,44,0,0,0,4.54,1.51,42.55,42.55,0,0,0,9.08,1.51c2.08.12,3.2,0,3.83-.73.47-.57.51-1.3.57-2.72,0-1.06,0-3.18.07-3.65a3.59,3.59,0,0,1,.13-.77s.05-.27.26-.3a28.87,28.87,0,0,0,7.39-2,.2.2,0,0,1,.11,0,.44.44,0,0,1,.26.15c.13.16,1.1,1.78,2.37,4A3.16,3.16,0,0,0,76,82.05c.74.19,1.4-.15,3-1.14a42.38,42.38,0,0,0,3.67-2.4,38.16,38.16,0,0,0,5.72-5.73c2.77-3.33,5.24-6.31,4.35-7.9a5.63,5.63,0,0,0-1.58-1.43,17.07,17.07,0,0,0-2-1c-1.14-.52-1.84-.79-2.16-1.51a2,2,0,0,1-.12-.37c-.23-1.09,1.49-3.86,2-7.38a.3.3,0,0,1,.3-.27l4.94-.13a2.87,2.87,0,0,0,2.07-.5c1-.84.93-2.45.81-3.83a45.74,45.74,0,0,0-1.43-8.59C93.5,33.38,92.25,29.57,89.86,29.25ZM60.29,68.83A19.34,19.34,0,1,1,79.64,49.49,19.34,19.34,0,0,1,60.29,68.83Z"/></svg>